#N canvas 663 170 565 498 10;
#X declare -lib mrpeach;
#X floatatom 144 244 5 0 0 0 - - -;
#X obj 77 29 import mrpeach;
#X msg 290 86 send /host 192.168.0.147;
#X obj 266 138 packOSC;
#X obj 232 194 udpsend;
#X msg 265 30 connect 192.168.0.157 9001;
#X obj 54 171 routeOSC /corner /length;
#X obj 47 224 print corner;
#X obj 56 51 udpreceive 9000;
#X obj 53 111 unpackOSC;
#X connect 2 0 3 0;
#X connect 3 0 4 0;
#X connect 5 0 4 0;
#X connect 6 0 7 0;
#X connect 6 1 0 0;
#X connect 8 0 9 0;
#X connect 9 0 6 0;
