#N canvas 932 60 717 328 10;
#X declare -lib mrpeach;
#X obj 77 29 import mrpeach;
#X obj 56 108 unpackOSC;
#X obj 55 158 routeOSC /corner /length /test;
#X obj 245 209 print test;
#X obj 324 207 print;
#X obj 44 208 print corner;
#X floatatom 155 200 5 0 0 0 - - -;
#X obj 56 68 udpreceive 9001;
#X obj 449 193 udpsend;
#X msg 442 33 connect localhost 9000;
#X msg 490 95 send /host localhost;
#X obj 482 132 packOSC;
#X connect 1 0 2 0;
#X connect 2 0 5 0;
#X connect 2 1 6 0;
#X connect 2 2 3 0;
#X connect 2 3 4 0;
#X connect 7 0 1 0;
#X connect 9 0 8 0;
#X connect 10 0 11 0;
#X connect 11 0 8 0;
